<?xml version="1.0" encoding="utf-8"?>
<!-- Generator: Adobe Illustrator 16.0.4, SVG Export Plug-In . SVG Version: 6.00 Build 0)  -->
<!DOCTYPE svg PUBLIC "-//W3C//DTD SVG 1.1//EN" "http://www.w3.org/Graphics/SVG/1.1/DTD/svg11.dtd">
<svg version="1.1" id="Layer_1" xmlns="http://www.w3.org/2000/svg" xmlns:xlink="http://www.w3.org/1999/xlink" x="0px" y="0px"
	 width="180px" height="140px" viewBox="0 0 180 140" enable-background="new 0 0 180 140" xml:space="preserve">
<path fill="#FFFFFF" d="M168.25,112.87h8.79c1.63,0,2.96,1.56,2.96,3.5c0,1.93-1.33,3.5-2.96,3.5H2.96c-1.63,0-2.96-1.57-2.96-3.5
	c0-1.94,1.33-3.5,2.96-3.5h9.29V22.8c0-1.62,1.31-2.93,2.93-2.93h150.14c1.619,0,2.93,1.31,2.93,2.93V112.87z M110.5,116.37
	c0-0.83-0.779-1.5-1.75-1.5h-37c-0.97,0-1.75,0.67-1.75,1.5s0.78,1.5,1.75,1.5h37C109.721,117.87,110.5,117.2,110.5,116.37z
	 M15.25,31.87v81h150v-81H15.25z M15.25,29.87h150v-7h-150V29.87z"/>
<path fill="#FFFFFF" d="M21.95,24.95c0.86,0,1.55,0.69,1.55,1.55s-0.69,1.55-1.55,1.55c-0.86,0-1.55-0.69-1.55-1.55
	S21.09,24.95,21.95,24.95z"/>
<path fill="#FFFFFF" d="M27.95,24.95c0.86,0,1.55,0.69,1.55,1.55s-0.69,1.55-1.55,1.55c-0.86,0-1.55-0.69-1.55-1.55
	S27.09,24.95,27.95,24.95z"/>
<path fill="#FFFFFF" d="M33.95,24.95c0.86,0,1.55,0.69,1.55,1.55s-0.69,1.55-1.55,1.55c-0.86,0-1.55-0.69-1.55-1.55
	S33.09,24.95,33.95,24.95z"/>
<path fill="#FFFFFF" d="M165.529,40v2H14.47v-2h29.5v-7.99h2V40H165.529z M84.47,35h9.99v2h-9.99V35z M116.471,35h9.989v2h-9.989V35
	z M148.48,35h9.99v2h-9.99V35z M132.471,35h9.989v2h-9.989V35z M100.471,35h9.989v2h-9.989V35z"/>
<rect x="84.47" y="50" fill="#FFFFFF" width="74" height="2"/>
<rect x="84.47" y="56" fill="#FFFFFF" width="74" height="2"/>
<rect x="84.47" y="62" fill="#FFFFFF" width="74" height="2"/>
<rect x="84.47" y="68" fill="#FFFFFF" width="48.25" height="2"/>
<rect x="21.48" y="86.5" fill="#FFFFFF" width="56.48" height="2"/>
<rect x="21.48" y="92.5" fill="#FFFFFF" width="56.48" height="2"/>
<rect x="21.48" y="98.5" fill="#FFFFFF" width="21.48" height="2"/>
<rect x="56.48" y="98.5" fill="#FFFFFF" width="21.48" height="2"/>
<path fill="#FFFFFF" d="M86.48,99h17.991V81.02H86.48V99z M84.48,101V79.02h21.991V101H84.48z"/>
<path fill="#FFFFFF" d="M112.48,99h17.99V81.02h-17.99V99z M110.48,101V79.02h21.99V101H110.48z"/>
<path fill="#FFFFFF" d="M138.48,99h17.99V81.02h-17.99V99z M136.48,101V79.02h21.99V101H136.48z"/>
<path fill="#FFFFFF" d="M21.48,82V50h56.49v32H21.48z M59.24,80h16.73V52H23.48v28h32.93l10.43-10.42c-1.53,0-2.96-0.4-4.35-1.31
	l-8.54,8.541l-1.42-1.41l8.49-8.49c-1.14-1.78-1.63-3.6-1.63-4.78L44.38,77.141l-1.41-1.41l18.2-18.2l0.01,0.01
	c-0.11,0.11-0.12,0.13,0,0l0,0l0.34-0.36c2.83-2.84,7.43-2.84,10.27,0c2.84,2.84,2.84,7.44,0,10.27l-0.36,0.34l0.01,0.01L59.24,80z
	 M71.43,67.79L71.43,67.79C71.3,67.9,71.32,67.9,71.43,67.79z"/>
</svg>
