<?xml version="1.0" encoding="utf-8"?>
<!-- Generator: Adobe Illustrator 16.0.4, SVG Export Plug-In . SVG Version: 6.00 Build 0)  -->
<!DOCTYPE svg PUBLIC "-//W3C//DTD SVG 1.1//EN" "http://www.w3.org/Graphics/SVG/1.1/DTD/svg11.dtd">
<svg version="1.1" id="Layer_1" xmlns="http://www.w3.org/2000/svg" xmlns:xlink="http://www.w3.org/1999/xlink" x="0px" y="0px"
	 width="180px" height="140px" viewBox="0 0 180 140" enable-background="new 0 0 180 140" xml:space="preserve">
<path fill="#FFFFFF" d="M133.18,103.88l11.99-20.76l1.74,1l-12,20.76L133.18,103.88z"/>
<path fill="#FFFFFF" d="M132.58,99.891l-1,1.049l-6.83-7.199l6.83-7.23l1.01,1.04l-5.84,6.19L132.58,99.891z"/>
<path fill="#FFFFFF" d="M148.21,87.561l1.011-1.051l6.819,7.2l-6.819,7.229l-1.021-1.049l5.84-6.181L148.21,87.561z"/>
<rect x="21.77" y="39" fill="#FFFFFF" width="13.98" height="2"/>
<rect x="21.77" y="57" fill="#FFFFFF" width="6.99" height="2"/>
<rect x="21.77" y="75" fill="#FFFFFF" width="6.99" height="2"/>
<rect x="21.77" y="104" fill="#FFFFFF" width="6.99" height="2"/>
<rect x="25.75" y="45" fill="#FFFFFF" width="121" height="2"/>
<rect x="25.56" y="51" fill="#FFFFFF" width="133.19" height="2"/>
<rect x="21.77" y="63" fill="#FFFFFF" width="136.98" height="2"/>
<rect x="21.77" y="69" fill="#FFFFFF" width="74.98" height="2"/>
<rect x="21.77" y="86" fill="#FFFFFF" width="23.98" height="2"/>
<rect x="25.75" y="92" fill="#FFFFFF" width="90" height="2"/>
<rect x="25.75" y="98" fill="#FFFFFF" width="90" height="2"/>
<path fill="#FFFFFF" d="M168.25,113h8.79c1.63,0,2.96,1.57,2.96,3.5s-1.33,3.5-2.96,3.5H2.96C1.33,120,0,118.43,0,116.5
	s1.33-3.5,2.96-3.5h9.29V22.93c0-1.62,1.31-2.93,2.93-2.93h150.14c1.619,0,2.93,1.31,2.93,2.93V113z M110.5,116.5
	c0-0.83-0.779-1.5-1.75-1.5h-37c-0.97,0-1.75,0.67-1.75,1.5s0.78,1.5,1.75,1.5h37C109.721,118,110.5,117.33,110.5,116.5z M15.25,32
	v81h150V32H15.25z M15.25,30h150v-7h-150V30z"/>
<path fill="#FFFFFF" d="M21.95,24.95c0.86,0,1.55,0.69,1.55,1.55s-0.69,1.55-1.55,1.55c-0.86,0-1.55-0.69-1.55-1.55
	S21.09,24.95,21.95,24.95z"/>
<path fill="#FFFFFF" d="M27.95,24.95c0.86,0,1.55,0.69,1.55,1.55s-0.69,1.55-1.55,1.55c-0.86,0-1.55-0.69-1.55-1.55
	S27.09,24.95,27.95,24.95z"/>
<path fill="#FFFFFF" d="M33.95,24.95c0.86,0,1.55,0.69,1.55,1.55s-0.69,1.55-1.55,1.55c-0.86,0-1.55-0.69-1.55-1.55
	S33.09,24.95,33.95,24.95z"/>
</svg>
