<?xml version="1.0" encoding="utf-8"?>
<!-- Generator: Adobe Illustrator 16.0.4, SVG Export Plug-In . SVG Version: 6.00 Build 0)  -->
<!DOCTYPE svg PUBLIC "-//W3C//DTD SVG 1.1//EN" "http://www.w3.org/Graphics/SVG/1.1/DTD/svg11.dtd">
<svg version="1.1" id="Layer_1" xmlns="http://www.w3.org/2000/svg" xmlns:xlink="http://www.w3.org/1999/xlink" x="0px" y="0px"
	 width="180px" height="140px" viewBox="0 0 180 140" enable-background="new 0 0 180 140" xml:space="preserve">
<path fill="#FFFFFF" d="M121.5,21.94c0-1.15-0.93-2.07-2.07-2.07H53.57c-1.14,0-2.07,0.92-2.07,2.07v95.85
	c0,1.149,0.93,2.08,2.07,2.08h65.86c1.141,0,2.07-0.931,2.07-2.08V21.94z M86.67,112.87c1.38,0,2.5,1.12,2.5,2.5s-1.12,2.5-2.5,2.5
	s-2.5-1.12-2.5-2.5S85.29,112.87,86.67,112.87z M54.5,22.87h64v88h-64V22.87z"/>
<path fill="#FFFFFF" d="M89.42,49.16c4.09-4.09,10.71-4.09,14.79,0c4.08,4.08,4.08,10.7,0,14.78s-10.7,4.08-14.79,0
	C85.34,59.86,85.34,53.24,89.42,49.16z"/>
<path fill="#FFFFFF" d="M62.73,75.85L88.92,49.66l2.04,2.04l-26.2,26.19L62.73,75.85z"/>
<path fill="#FFFFFF" d="M75.48,88.6l26.19-26.189l2.04,2.04l-26.2,26.19L75.48,88.6z"/>
<path fill="#FFFFFF" d="M76.5,75.37l26.189-26.19l2.031,2.04L78.53,77.41L76.5,75.37z"/>
<path fill="#FFFFFF" d="M167.5,51.93c0-0.59-0.48-1.06-1.07-1.06H132.57c-0.59,0-1.07,0.47-1.07,1.06v66.87
	c0,0.591,0.48,1.07,1.07,1.07h33.859c0.59,0,1.07-0.479,1.07-1.07V51.93z M149.5,112.87c1.38,0,2.5,1.12,2.5,2.5s-1.12,2.5-2.5,2.5
	s-2.5-1.12-2.5-2.5S148.12,112.87,149.5,112.87z M134.5,53.87h30v57h-30V53.87z"/>
<path fill="#FFFFFF" d="M151.6,72.24c1.94-1.94,5.08-1.94,7.021,0c1.94,1.939,1.94,5.09,0,7.029c-1.94,1.931-5.08,1.931-7.021,0
	C149.66,77.33,149.66,74.18,151.6,72.24z"/>
<path fill="#FFFFFF" d="M138.92,84.92l12.439-12.439l0.971,0.97l-12.439,12.44L138.92,84.92z"/>
<path fill="#FFFFFF" d="M144.98,90.98l12.439-12.44l0.96,0.96l-12.43,12.439L144.98,90.98z"/>
<path fill="#FFFFFF" d="M145.46,84.689l12.44-12.43l0.97,0.96l-12.44,12.44L145.46,84.689z"/>
<rect x="54.5" y="101.87" fill="#FFFFFF" width="16" height="2"/>
<rect x="85.5" y="101.87" fill="#FFFFFF" width="35.5" height="2"/>
<rect x="148.5" y="101.87" fill="#FFFFFF" width="16" height="2"/>
<path fill="#FFFFFF" d="M87.5,101.87v9.12h-2v-9.12H87.5z"/>
<path fill="#FFFFFF" d="M150.5,102.37v8.62h-2v-8.62H150.5z"/>
<path fill="#FFFFFF" d="M104.5,102.37v8.62h-2v-8.62H104.5z"/>
<path fill="#FFFFFF" d="M70.5,102.37v8.62h-2v-8.62H70.5z"/>
<rect x="54.5" y="24.87" fill="#FFFFFF" width="64" height="2"/>
<rect x="134" y="55.87" fill="#FFFFFF" width="33.5" height="2"/>
<path fill="#FFFFFF" d="M35.65,89.87H19.39c-3.79,0-6.87,3.069-6.87,6.86V113c0,3.79,3.08,6.87,6.87,6.87h16.26
	c3.79,0,6.87-3.08,6.87-6.87V96.73C42.52,92.939,39.44,89.87,35.65,89.87z M19.97,117.37c-2.73,0-4.95-2.22-4.95-4.95v-1.8l9.2-9.2
	c0,1.061,0.44,2.7,1.47,4.3l-7.64,7.64l1.27,1.271l7.69-7.68c1.24,0.819,2.53,1.17,3.91,1.17l-9.24,9.25H19.97z M40.02,112.42
	c0,2.73-2.22,4.95-4.95,4.95H24.22l10.84-10.84l-0.01-0.011l0.33-0.31c2.55-2.55,2.55-6.69,0-9.25c-2.56-2.55-6.7-2.55-9.25,0
	l-0.31,0.33h0.01c-0.11,0.12-0.1,0.101-0.01,0v-0.01l-10.8,10.8V97.32c0-2.74,2.22-4.95,4.95-4.95h15.1c2.73,0,4.95,2.21,4.95,4.95
	V112.42z"/>
<path fill="#FFFFFF" d="M35.05,106.52v-0.01C34.94,106.62,34.95,106.609,35.05,106.52z"/>
</svg>
