<?xml version="1.0" encoding="utf-8"?>
<!-- Generator: Adobe Illustrator 16.0.4, SVG Export Plug-In . SVG Version: 6.00 Build 0)  -->
<!DOCTYPE svg PUBLIC "-//W3C//DTD SVG 1.1//EN" "http://www.w3.org/Graphics/SVG/1.1/DTD/svg11.dtd">
<svg version="1.1" id="Layer_1" xmlns="http://www.w3.org/2000/svg" xmlns:xlink="http://www.w3.org/1999/xlink" x="0px" y="0px"
	 width="180px" height="140px" viewBox="0 0 180 140" enable-background="new 0 0 180 140" xml:space="preserve">
<path fill="#FFFFFF" d="M45.85,69H10.16c-1.19,0-2.15,0.96-2.15,2.15V89.85c0,1.19,0.96,2.15,2.15,2.15h35.69
	c1.19,0,2.16-0.96,2.16-2.15V71.15C48.01,69.96,47.04,69,45.85,69z M46.01,90h-7.59l4.14-4.01l-0.01-0.01l0.14-0.121
	c1.09-1.06,1.09-2.779,0-3.84c-1.08-1.05-2.84-1.05-3.93,0l-0.12,0.141l-0.01-0.01l-6.97,6.789l0.54,0.53l5.75-5.6
	c0.05,0.239,0.21,0.95,0.62,1.78l-3.25,3.17l0.54,0.529l3.28-3.189c0.53,0.34,1.07,0.49,1.66,0.49L37.34,90H10.01V71h36V90z"/>
<rect x="13.01" y="78" fill="#FFFFFF" width="14" height="2"/>
<rect x="22.01" y="74" fill="#FFFFFF" width="7" height="2"/>
<rect x="13.01" y="74" fill="#FFFFFF" width="7" height="2"/>
<path fill="#FFFFFF" d="M96.4,32.03h0.01L89.44,39l-0.54-0.54l5.75-5.75c-0.59,0-1.141-0.15-1.67-0.5l-3.271,3.27l-0.54-0.54
	l3.25-3.25c-0.41-0.86-0.57-1.58-0.62-1.83l-5.75,5.75l-0.54-0.54l6.971-6.97v0.01l0.129-0.14c1.091-1.09,2.851-1.09,3.931,0
	c1.09,1.08,1.09,2.84,0,3.93L96.4,32.03z"/>
<path fill="#FFFFFF" d="M124.439,20H58.58c-1.14,0-2.07,0.93-2.07,2.07v95.86c0,1.141,0.93,2.07,2.07,2.07h65.859
	c1.141,0,2.07-0.93,2.07-2.07V22.07C126.51,20.93,125.58,20,124.439,20z M124.51,117.93H58.58V92h65.93V117.93z M124.51,90H58.58
	V22.07h65.93V90z"/>
<rect x="64.51" y="76" fill="#FFFFFF" width="54" height="2"/>
<rect x="64.51" y="70" fill="#FFFFFF" width="54" height="2"/>
<rect x="64.51" y="64" fill="#FFFFFF" width="54" height="2"/>
<rect x="64.51" y="58" fill="#FFFFFF" width="15" height="2"/>
<rect x="64.51" y="30" fill="#FFFFFF" width="21" height="1"/>
<rect x="99.51" y="30" fill="#FFFFFF" width="19" height="1"/>
<path fill="#FFFFFF" d="M170.359,60h-3.85v-1h-4v1h-27.85c-1.189,0-2.15,0.96-2.15,2.15v55.7c0,1.19,0.961,2.15,2.15,2.15h28.85V60
	h2v60h4.85c1.19,0,2.15-0.96,2.15-2.15v-55.7C172.51,60.96,171.55,60,170.359,60z M155.62,105.13l-0.14,0.12l0.01,0.01l-6.971,6.78
	l-0.539-0.521l5.75-5.6c-0.59,0-1.141-0.15-1.67-0.49l-3.271,3.19l-0.54-0.53l3.25-3.17c-0.42-0.83-0.57-1.54-0.62-1.779l-5.75,5.6
	l-0.54-0.53l6.96-6.79l0.011,0.01l0.129-0.14c1.08-1.05,2.84-1.05,3.931,0C156.71,102.35,156.71,104.07,155.62,105.13z"/>
<rect x="162.51" y="119" fill="#FFFFFF" width="4" height="1"/>
<path fill="#FFFFFF" d="M48.01,99.15c0-1.19-0.97-2.15-2.16-2.15H10.16c-1.19,0-2.15,0.96-2.15,2.15v18.699
	c0,1.19,0.96,2.15,2.15,2.15h35.69c1.19,0,2.16-0.96,2.16-2.15V99.15z M34.7,107.76l0.01,0.01l-9.38,9.131l-0.73-0.711l7.74-7.529
	c-0.79,0-1.53-0.2-2.24-0.66l-4.41,4.29l-0.72-0.71l4.37-4.26c-0.58-0.99-0.81-1.93-0.84-2.4l-7.74,7.54l-0.72-0.71l9.37-9.141
	l0.01,0.011l0.17-0.19c1.46-1.42,3.83-1.42,5.3,0c1.46,1.43,1.46,3.74,0,5.16L34.7,107.76z"/>
</svg>
